<svg xmlns="http://www.w3.org/2000/svg" width="45" height="43" viewBox="0 0 45 43"><defs><style>.a{fill:rgba(255,255,255,0.7);}</style></defs><path class="a" d="M15.051,42.624c0,.178-.209.32-.472.32-.3.027-.508-.116-.508-.32,0-.178.209-.32.472-.32C14.816,42.277,15.051,42.419,15.051,42.624Zm-2.822-.4c-.064.178.118.382.39.436a.43.43,0,0,0,.563-.178c.054-.178-.118-.382-.39-.462a.47.47,0,0,0-.562.2Zm4.01-.151c-.263.062-.445.231-.417.436.027.178.263.293.535.231s.445-.231.417-.409S16.5,42.046,16.24,42.072ZM22.21,8C9.626,8,0,17.363,0,29.7A22.329,22.329,0,0,0,15.378,50.964c1.161.2,1.57-.5,1.57-1.076,0-.551-.027-3.592-.027-5.459,0,0-6.351,1.334-7.684-2.65,0,0-1.034-2.587-2.522-3.254,0,0-2.078-1.4.145-1.369a4.807,4.807,0,0,1,3.5,2.294c1.987,3.432,5.317,2.445,6.614,1.858a4.905,4.905,0,0,1,1.452-3C13.355,37.76,8.238,37.04,8.238,28.486a6.671,6.671,0,0,1,2.141-5.237,8.245,8.245,0,0,1,.236-6.037c1.9-.578,6.26,2.4,6.26,2.4a21.854,21.854,0,0,1,11.4,0s4.364-2.988,6.26-2.4a8.241,8.241,0,0,1,.236,6.037c1.452,1.574,2.341,2.8,2.341,5.237,0,8.58-5.344,9.265-10.415,9.825a5.2,5.2,0,0,1,1.542,4.126c0,3-.027,6.7-.027,7.433,0,.578.417,1.28,1.57,1.076A22.119,22.119,0,0,0,45,29.7C45,17.363,34.793,8,22.21,8ZM8.819,38.667c-.118.089-.091.293.064.462.145.142.354.2.472.089.118-.089.091-.293-.064-.462C9.145,38.613,8.936,38.551,8.819,38.667Zm-.98-.72c-.064.116.027.258.209.347a.273.273,0,0,0,.39-.062c.064-.116-.027-.258-.209-.347C8.047,37.831,7.9,37.858,7.839,37.947Zm2.94,3.165c-.145.116-.091.382.118.551.209.2.472.231.59.089.118-.116.064-.382-.118-.551C11.168,41,10.9,40.97,10.778,41.112ZM9.744,39.8c-.145.089-.145.32,0,.525s.39.293.508.2a.4.4,0,0,0,0-.551C10.125,39.778,9.889,39.689,9.744,39.8Z" transform="translate(0 -8)"/></svg>