<svg xmlns="http://www.w3.org/2000/svg" width="43.01" height="43" viewBox="0 0 43.01 43"><defs><style>.a{fill:rgba(255,252,252,0.7);}</style></defs><path class="a" d="M21.435,42.3A11.025,11.025,0,1,0,32.459,53.325,11.007,11.007,0,0,0,21.435,42.3Zm0,18.192A7.167,7.167,0,1,1,28.6,53.325a7.18,7.18,0,0,1-7.167,7.167ZM35.482,41.849a2.571,2.571,0,1,1-2.571-2.571A2.565,2.565,0,0,1,35.482,41.849Zm7.3,2.61c-.163-3.445-.95-6.5-3.473-9.01s-5.565-3.3-9.01-3.473c-3.55-.2-14.191-.2-17.741,0-3.435.163-6.486.95-9.01,3.464S.249,41.005.076,44.45c-.2,3.55-.2,14.191,0,17.741.163,3.445.95,6.5,3.473,9.01s5.565,3.3,9.01,3.473c3.55.2,14.191.2,17.741,0,3.445-.163,6.5-.95,9.01-3.473s3.3-5.565,3.473-9.01c.2-3.55.2-14.181,0-17.732ZM38.2,66a7.256,7.256,0,0,1-4.087,4.087c-2.831,1.123-9.547.864-12.675.864s-9.854.249-12.675-.864A7.256,7.256,0,0,1,4.672,66c-1.123-2.831-.864-9.547-.864-12.675s-.249-9.854.864-12.675A7.256,7.256,0,0,1,8.76,36.563c2.831-1.123,9.547-.864,12.675-.864s9.854-.249,12.675.864A7.256,7.256,0,0,1,38.2,40.65c1.123,2.831.864,9.547.864,12.675S39.32,63.179,38.2,66Z" transform="translate(0.075 -31.825)"/></svg>