<svg xmlns="http://www.w3.org/2000/svg" width="52" height="43" viewBox="0 0 52 43"><defs><style>.a{fill:rgba(255,255,255,0.7);}</style></defs><path class="a" d="M46.655,58.8c.033.47.033.941.033,1.411,0,14.344-10.723,30.873-30.322,30.873A29.728,29.728,0,0,1,0,86.211a21.657,21.657,0,0,0,2.574.134A21.1,21.1,0,0,0,15.8,81.709,10.7,10.7,0,0,1,5.84,74.184a13.206,13.206,0,0,0,2.013.168,11.083,11.083,0,0,0,2.8-.369A10.805,10.805,0,0,1,2.112,63.334V63.2a10.589,10.589,0,0,0,4.817,1.377,11,11,0,0,1-3.3-14.513A30.119,30.119,0,0,0,25.6,61.419a12.463,12.463,0,0,1-.264-2.486A10.751,10.751,0,0,1,36,48.082a10.544,10.544,0,0,1,7.787,3.427,20.756,20.756,0,0,0,6.764-2.62,10.788,10.788,0,0,1-4.685,5.98A21.066,21.066,0,0,0,52,53.188a23.141,23.141,0,0,1-5.345,5.61Z" transform="translate(0 -48.082)"/></svg>